<svg xmlns="http://www.w3.org/2000/svg" viewBox="0 0 676 1080" width="676" height="1080" preserveAspectRatio="xMidYMid meet" style="width: 100%; height: 100%; transform: translate3d(0px, 0px, 0px);"><defs><clipPath id="__lottie_element_196"><rect width="676" height="1080" x="0" y="0"></rect></clipPath></defs><g clip-path="url(#__lottie_element_196)"><g transform="matrix(1.0800000429153442,0,0,1.0800000429153442,-243.20001220703125,-33.195556640625)" opacity="1" style="display: block;"><g opacity="1" transform="matrix(1,0,0,1,540,517.6237182617188)"><path fill="rgb(186,119,159)" fill-opacity="1" d=" M168.22000122070312,-315.5870056152344 C125.18000030517578,-358.6369934082031 65.69999694824219,-385.2669982910156 0,-385.2669982910156 C-131.38999938964844,-385.2669982910156 -237.91000366210938,-278.7569885253906 -237.91000366210938,-147.36700439453125 C-237.91000366210938,-147.36700439453125 -237.82000732421875,368.9729919433594 -237.82000732421875,368.9729919433594 C-237.82000732421875,368.9729919433594 -237.8159942626953,376.8699951171875 -237.8159942626953,376.8699951171875 C-237.8159942626953,376.8699951171875 -91.7509994506836,377.4570007324219 -15.520000457763672,382.3630065917969 C-15.520000457763672,382.3630065917969 -133.96800231933594,290.00799560546875 -133.96800231933594,290.00799560546875 C-133.96800231933594,290.00799560546875 -136.0399932861328,331.72698974609375 -136.0399932861328,51.44300079345703 C-136.0399932861328,51.44300079345703 -136.0399932861328,-137.40699768066406 -136.0399932861328,-137.40699768066406 C-136.0399932861328,-218.20700073242188 -75.12999725341797,-283.6969909667969 0,-283.6969909667969 C37.56999969482422,-283.6969909667969 71.58000183105469,-267.3269958496094 96.19999694824219,-240.85699462890625 C120.81999969482422,-214.3769989013672 136.0399932861328,-177.8070068359375 136.0399932861328,-137.40699768066406 C136.0399932861328,-137.40699768066406 136.0399932861328,43.8129997253418 136.0399932861328,43.8129997253418 C136.0399932861328,43.8129997253418 237.91000366210938,43.8129997253418 237.91000366210938,43.8129997253418 C237.91000366210938,43.8129997253418 237.91000366210938,-147.36700439453125 237.91000366210938,-147.36700439453125 C237.91000366210938,-213.06700134277344 211.27000427246094,-272.5369873046875 168.22000122070312,-315.5870056152344z"></path></g><g opacity="1" transform="matrix(1,0,0,1,540,716.7639770507812)"><path fill="rgb(164,47,139)" fill-opacity="1" d=" M301.92999267578125,-197.62600708007812 C301.92999267578125,-197.62600708007812 301.92999267578125,197.62600708007812 301.92999267578125,197.62600708007812 C301.92999267578125,212.6750030517578 289.7359924316406,224.8699951171875 274.68701171875,224.8699951171875 C274.68701171875,224.8699951171875 -274.68701171875,224.8699951171875 -274.68701171875,224.8699951171875 C-289.7359924316406,224.8699951171875 -301.92999267578125,212.6750030517578 -301.92999267578125,197.62600708007812 C-301.92999267578125,197.62600708007812 -301.92999267578125,-197.62600708007812 -301.92999267578125,-197.62600708007812 C-301.92999267578125,-212.6750030517578 -289.7359924316406,-224.8699951171875 -274.68701171875,-224.8699951171875 C-274.68701171875,-224.8699951171875 274.68701171875,-224.8699951171875 274.68701171875,-224.8699951171875 C289.7359924316406,-224.8699951171875 301.92999267578125,-212.6750030517578 301.92999267578125,-197.62600708007812z"></path></g><g opacity="1" transform="matrix(1,0,0,1,0,0)"><g opacity="1" transform="matrix(1,0,0,1,540,667.718017578125)"><path fill="rgb(255,251,251)" fill-opacity="1" d=" M81.7509994506836,0 C81.7509994506836,45.150001525878906 45.150001525878906,81.7509994506836 0,81.7509994506836 C-45.150001525878906,81.7509994506836 -81.7509994506836,45.150001525878906 -81.7509994506836,0 C-81.7509994506836,-45.150001525878906 -45.150001525878906,-81.7509994506836 0,-81.7509994506836 C45.150001525878906,-81.7509994506836 81.7509994506836,-45.150001525878906 81.7509994506836,0z"></path></g><g opacity="1" transform="matrix(1,0,0,1,540,775.0599975585938)"><path fill="rgb(255,251,251)" fill-opacity="1" d=" M22.972000122070312,71.38999938964844 C22.972000122070312,71.38999938964844 -22.972000122070312,71.38999938964844 -22.972000122070312,71.38999938964844 C-37.5099983215332,71.38999938964844 -49.29499816894531,59.60599899291992 -49.29499816894531,45.06800079345703 C-49.29499816894531,45.06800079345703 -49.29499816894531,-45.06800079345703 -49.29499816894531,-45.06800079345703 C-49.29499816894531,-59.60599899291992 -37.5099983215332,-71.38999938964844 -22.972000122070312,-71.38999938964844 C-22.972000122070312,-71.38999938964844 22.972000122070312,-71.38999938964844 22.972000122070312,-71.38999938964844 C37.5099983215332,-71.38999938964844 49.29499816894531,-59.60599899291992 49.29499816894531,-45.06800079345703 C49.29499816894531,-45.06800079345703 49.29499816894531,45.06800079345703 49.29499816894531,45.06800079345703 C49.29499816894531,59.60599899291992 37.5099983215332,71.38999938964844 22.972000122070312,71.38999938964844z"></path></g></g></g><g transform="matrix(1.0800000429153442,0,0,1.0800000429153442,-243.20001220703125,-33.19344711303711)" opacity="1" style="display: block;"><g opacity="1" transform="matrix(1,0,0,1,742.8200073242188,909.9619750976562)"><path stroke-linecap="round" stroke-linejoin="miter" fill-opacity="0" stroke-miterlimit="10" stroke="rgb(164,47,139)" stroke-opacity="1" stroke-width="10" d=" M99.11000061035156,-31.672000885009766 C99.11000061035156,-31.672000885009766 99.11000061035156,4.427999973297119 99.11000061035156,4.427999973297119 C99.11000061035156,19.476999282836914 86.91600036621094,31.672000885009766 71.86699676513672,31.672000885009766 C71.86699676513672,31.672000885009766 -99.11000061035156,31.672000885009766 -99.11000061035156,31.672000885009766"></path></g><g opacity="0.25" transform="matrix(1,0,0,1,742.8200073242188,909.9619750976562)"><path stroke-linecap="round" stroke-linejoin="miter" fill-opacity="0" stroke-miterlimit="10" stroke="rgb(12,192,223)" stroke-opacity="1" stroke-width="10" d=" M99.11000061035156,-31.672000885009766 C99.11000061035156,-31.672000885009766 99.11000061035156,4.427999973297119 99.11000061035156,4.427999973297119 C99.11000061035156,19.476999282836914 86.91600036621094,31.672000885009766 71.86699676513672,31.672000885009766 C71.86699676513672,31.672000885009766 -99.11000061035156,31.672000885009766 -99.11000061035156,31.672000885009766"></path></g><g opacity="1" transform="matrix(1,0,0,1,483.2139892578125,630.0540161132812)"><path stroke-linecap="round" stroke-linejoin="miter" fill-opacity="0" stroke-miterlimit="10" stroke="rgb(164,47,139)" stroke-opacity="1" stroke-width="10" d=" M-24.96500015258789,37.66299819946289 C-24.96500015258789,3.8010001182556152 -4.376999855041504,-25.253000259399414 24.96500015258789,-37.66299819946289"></path></g><g opacity="0.25" transform="matrix(1,0,0,1,483.2139892578125,630.0540161132812)"><path stroke-linecap="round" stroke-linejoin="miter" fill-opacity="0" stroke-miterlimit="10" stroke="rgb(12,192,223)" stroke-opacity="1" stroke-width="10" d=" M-24.96500015258789,37.66299819946289 C-24.96500015258789,3.8010001182556152 -4.376999855041504,-25.253000259399414 24.96500015258789,-37.66299819946289"></path></g></g></g></svg>